<svg xmlns="http://www.w3.org/2000/svg" xmlns:xlink="http://www.w3.org/1999/xlink" width="121.784" height="81.96" viewBox="0 -2514.2 6728.4 4528.5" fill="currentColor" stroke="currentColor"><defs><path id="a" d="M614 1500H321V0h66v1432h227c22 0 33 11 33 34 0 19-14 34-33 34Z"/><path id="b" d="M614 68H387v1432h-66V0h293c22 0 33 11 33 34 0 19-14 34-33 34Z"/><path id="c" d="M321 0h66v1000h-66Z"/><path id="d" d="M557 56c0 31-25 56-56 56-32 0-56-24-56-56 0-31 25-56 56-56 32 0 56 24 56 56M169 444c0 30-26 56-56 56-32 0-56-24-56-56 0-31 25-56 56-56 32 0 56 24 56 56m194-194c0 30-26 56-56 56s-56-26-56-56 26-56 56-56 56 26 56 56Z"/><path id="e" d="M556 444c0 32-24 56-56 56-31 0-56-25-56-56 0-32 24-56 56-56 31 0 56 25 56 56M362 250c0 30-26 56-56 56s-56-26-56-56 26-56 56-56 56 26 56 56M168 56c0 30-26 56-56 56-31 0-56-25-56-56 0-32 24-56 56-56 31 0 56 25 56 56Z"/><path id="f" d="M547 685H51c-25 0-37-7-37-22 0-14 10-21 31-21 51 0 56-2 56-52V95c0-47-3-52-51-52-24 0-36-7-36-21C14 4 28 0 51 0h285c25 0 37 7 37 22 0 14-11 21-34 21-36 0-58 3-65 8s-11 21-11 47v234c88-1 135-37 140-109 1-19 8-28 21-28 18 0 21 12 21 35v268c0 24-7 36-21 36-13 0-20-8-21-25-7-92-46-128-140-133v204c0 36 6 56 18 60 5 1 12 2 21 2h46c100 0 184-46 193-132 1-18 8-27 21-27 14 0 21 12 21 37v128c0 33-3 37-36 37m-6-43v-32c-13 13-26 24-37 32M403 387v-59c-11 11-25 21-40 28 15 8 28 18 40 31M137 642h93c-6-15-9-35-9-60V96c0-23 3-40 8-53h-92c4 12 6 29 6 50v499c0 21-2 38-6 50Z"/><path id="g" d="M237 666c-51 0-94-18-131-54s-56-78-56-129c0-34 25-59 56-59 30 0 55 26 55 56 0 33-24 56-56 56-3 0-5 0-7-1 19 49 63 92 126 92 82 0 128-71 128-157 0-67-34-139-102-215L62 43C49 28 50 29 50 0h371l29 180h-33c-8-51-15-80-21-89-5-5-35-7-90-7H139l97 95c68 64 154 133 183 186 20 35 30 70 30 105 0 118-92 196-212 196Z"/><path id="h" d="M280 0h66v1500H53c-22 0-33-11-33-34s11-34 33-34h227Z"/><path id="i" d="M53 0h293v1500h-66V68H53c-22 0-33-11-33-34S31 0 53 0Z"/><path id="j" d="M280 0h66v1000h-66Z"/></defs><g fill="currentColor" stroke="currentColor" stroke-width="0"><g transform="scale(1 -1)"><use xlink:href="#a" transform="translate(0 1014.2)"/><use xlink:href="#b" transform="translate(0 -2014.2)"/><svg width="667" height="1728.5" y="-614.2" viewBox="0 432.1 667 1728.5"><use xlink:href="#c" transform="scale(1 2.593)"/></svg></g><g transform="matrix(1 0 0 -1 667 -1764.2)"><use xlink:href="#d"/><use xlink:href="#e" transform="translate(4781.4)"/></g><g transform="matrix(2.07 0 0 -2.07 2280 303.7)"><use xlink:href="#f"/><use xlink:href="#g" transform="matrix(.707 0 0 .707 644 -150)"/></g><g transform="matrix(1 0 0 -1 667 1764.2)"><use xlink:href="#e"/><use xlink:href="#d" transform="translate(4781.4)"/></g><g transform="matrix(1 0 0 -1 6061.4 0)"><use xlink:href="#h" transform="translate(0 1014.2)"/><use xlink:href="#i" transform="translate(0 -2014.2)"/><svg width="667" height="1728.5" y="-614.2" viewBox="0 432.1 667 1728.5"><use xlink:href="#j" transform="scale(1 2.593)"/></svg></g></g></svg>